<svg width="18" height="18" viewBox="0 0 18 18" fill="none" xmlns="http://www.w3.org/2000/svg">
<g clip-path="url(#clip0_109_2156)">
<path d="M0.5625 6.1875H17.4375M4.3125 0.5625V2.4375M13.6875 0.5625V2.4375M3.375 9H5.25M8.0625 9H9.9375M12.75 9H14.625M3.375 11.8125H5.25M8.0625 11.8125H9.9375M12.75 11.8125H14.625M3.375 14.625H5.25M8.0625 14.625H9.9375M12.75 14.625H14.625M3.5625 17.4375H14.4375C15.4876 17.4375 16.0127 17.4375 16.4138 17.2331C16.7665 17.0534 17.0534 16.7665 17.2331 16.4138C17.4375 16.0127 17.4375 15.4876 17.4375 14.4375V5.4375C17.4375 4.3874 17.4375 3.86235 17.2331 3.46127C17.0534 3.10846 16.7665 2.82162 16.4138 2.64187C16.0127 2.4375 15.4876 2.4375 14.4375 2.4375H3.5625C2.51241 2.4375 1.98735 2.4375 1.58627 2.64187C1.23346 2.82162 0.946622 3.10846 0.766866 3.46127C0.5625 3.86235 0.5625 4.3874 0.5625 5.4375V14.4375C0.5625 15.4876 0.5625 16.0127 0.766866 16.4138C0.946622 16.7665 1.23346 17.0534 1.58627 17.2331C1.98735 17.4375 2.5124 17.4375 3.5625 17.4375Z" stroke="#131313" stroke-linecap="round"/>
</g>
<defs>
<clipPath id="clip0_109_2156">
<rect width="18" height="18" fill="white"/>
</clipPath>
</defs>
</svg>
