<svg width="18" height="18" viewBox="0 0 18 18" fill="none" xmlns="http://www.w3.org/2000/svg">
<g clip-path="url(#clip0_109_2144)">
<path fill-rule="evenodd" clip-rule="evenodd" d="M5.39618 1.44H12.6052C14.8058 1.45665 16.5763 3.25379 16.5601 5.45436V10.3284C16.5679 11.3854 16.1555 12.4021 15.4135 13.155C14.6717 13.9077 13.6611 14.3351 12.6041 14.3428H5.39618L1.44014 16.56V5.45436C1.43238 4.39741 1.84482 3.38068 2.58672 2.62783C3.32864 1.87498 4.33923 1.4477 5.39618 1.44Z" stroke="#131313" stroke-linecap="round" stroke-linejoin="round"/>
<path fill-rule="evenodd" clip-rule="evenodd" d="M3.6001 7.92C3.6001 7.32351 4.08363 6.84 4.6801 6.84C5.27657 6.84 5.7601 7.32351 5.7601 7.92C5.7601 8.51648 5.27657 9 4.6801 9C4.39367 9 4.11896 8.88616 3.91642 8.68366C3.71389 8.48116 3.6001 8.20641 3.6001 7.92Z" stroke="#131313" stroke-linecap="round" stroke-linejoin="round"/>
<path fill-rule="evenodd" clip-rule="evenodd" d="M7.92004 7.92C7.92004 7.32351 8.40356 6.84 9.00004 6.84C9.59653 6.84 10.08 7.32351 10.08 7.92C10.08 8.51648 9.59653 9 9.00004 9C8.40356 9 7.92004 8.51648 7.92004 7.92Z" stroke="#131313" stroke-linecap="round" stroke-linejoin="round"/>
<path fill-rule="evenodd" clip-rule="evenodd" d="M12.2401 7.92C12.2401 7.32351 12.7237 6.84 13.3201 6.84C13.9166 6.84 14.4001 7.32351 14.4001 7.92C14.4001 8.51648 13.9166 9 13.3201 9C12.7237 9 12.2401 8.51648 12.2401 7.92Z" stroke="#131313" stroke-linecap="round" stroke-linejoin="round"/>
</g>
<defs>
<clipPath id="clip0_109_2144">
<rect width="18" height="18" fill="white"/>
</clipPath>
</defs>
</svg>
