<svg width="18" height="16" viewBox="0 0 18 16" fill="none" xmlns="http://www.w3.org/2000/svg">
<g clip-path="url(#clip0_109_2151)">
<path fill-rule="evenodd" clip-rule="evenodd" d="M9 4.875C7.27411 4.875 5.875 6.27411 5.875 8C5.875 9.72592 7.27411 11.125 9 11.125C10.7259 11.125 12.125 9.72592 12.125 8C12.125 6.27411 10.7259 4.875 9 4.875ZM7.125 8C7.125 6.9645 7.9645 6.125 9 6.125C10.0355 6.125 10.875 6.9645 10.875 8C10.875 9.0355 10.0355 9.875 9 9.875C7.9645 9.875 7.125 9.0355 7.125 8Z" fill="#131313"/>
<path fill-rule="evenodd" clip-rule="evenodd" d="M8.99996 0.708344C5.23818 0.708344 2.70437 2.96184 1.23377 4.87239L1.20724 4.90684C0.874659 5.33879 0.568343 5.73661 0.360534 6.20701C0.137993 6.71076 0.041626 7.25976 0.041626 8.00001C0.041626 8.74026 0.137993 9.28926 0.360534 9.79301C0.568343 10.2634 0.874659 10.6613 1.20725 11.0932L1.23377 11.1276C2.70437 13.0382 5.23818 15.2917 8.99996 15.2917C12.7617 15.2917 15.2955 13.0382 16.7661 11.1276L16.7926 11.0932C17.1253 10.6613 17.4315 10.2634 17.6394 9.79301C17.862 9.28926 17.9583 8.74026 17.9583 8.00001C17.9583 7.25976 17.862 6.71076 17.6394 6.20701C17.4315 5.7366 17.1253 5.33878 16.7926 4.90683L16.7661 4.87239C15.2955 2.96184 12.7617 0.708344 8.99996 0.708344ZM2.22431 5.63484C3.58216 3.87078 5.79193 1.95834 8.99996 1.95834C12.208 1.95834 14.4178 3.87078 15.7756 5.63484C16.1411 6.10967 16.3552 6.39343 16.496 6.71209C16.6276 7.01001 16.7083 7.37409 16.7083 8.00001C16.7083 8.62593 16.6276 8.99001 16.496 9.28793C16.3552 9.60659 16.1411 9.89034 15.7756 10.3652C14.4178 12.1293 12.208 14.0417 8.99996 14.0417C5.79193 14.0417 3.58216 12.1293 2.22431 10.3652C1.85883 9.89034 1.64474 9.60659 1.50393 9.28793C1.37233 8.99001 1.29163 8.62593 1.29163 8.00001C1.29163 7.37409 1.37233 7.01001 1.50393 6.71209C1.64474 6.39343 1.85882 6.10967 2.22431 5.63484Z" fill="#131313"/>
</g>
<defs>
<clipPath id="clip0_109_2151">
<rect width="18" height="16" fill="white"/>
</clipPath>
</defs>
</svg>
