<svg width="32" height="32" viewBox="0 0 32 32" fill="none" xmlns="http://www.w3.org/2000/svg">
<g clip-path="url(#clip0_109_2175)">
<path d="M28.4444 4.44444H3.55556C3.37334 4.44444 3.19378 4.45778 3.01867 4.48444L3.01512 6.04355L0.588448 6.04C0.20369 6.62119 -0.00100626 7.30299 3.71948e-06 8V24C3.71948e-06 24.943 0.374606 25.8474 1.0414 26.5142C1.7082 27.181 2.61257 27.5556 3.55556 27.5556H28.4444C29.3874 27.5556 30.2918 27.181 30.9586 26.5142C31.6254 25.8474 32 24.943 32 24V8C32 7.05701 31.6254 6.15264 30.9586 5.48584C30.2918 4.81904 29.3874 4.44444 28.4444 4.44444Z" fill="#00247D"/>
<path d="M8 23.1316L6.91378 24.1351L7.02133 22.6596L5.55911 22.4364L6.77956 21.6009L6.04267 20.3182L7.45689 20.752L8 19.3751L8.544 20.752L9.95822 20.3182L9.22045 21.6009L10.4418 22.4364L8.97956 22.6596L9.08711 24.1351L8 23.1316ZM24.8444 8.49956L24.1342 9.15556L24.2044 8.19022L23.2471 8.04445L24.0462 7.49778L23.5644 6.65867L24.4889 6.94222L24.8444 6.04178L25.2009 6.94222L26.1262 6.65867L25.6436 7.49778L26.4418 8.04445L25.4853 8.19022L25.5556 9.15556L24.8444 8.49956ZM21.2889 13.8329L20.5787 14.4898L20.6489 13.5244L19.6916 13.3787L20.4907 12.8311L20.0089 11.992L20.9333 12.2756L21.2889 11.3751L21.6453 12.2756L22.5707 11.992L22.088 12.8311L22.8862 13.3787L21.9298 13.5244L22 14.4898L21.2889 13.8329ZM29.2889 12.0551L28.5787 12.712L28.6489 11.7467L27.6916 11.6009L28.4907 11.0533L28.0089 10.2142L28.9333 10.4978L29.2889 9.59733L29.6453 10.4978L30.5707 10.2142L30.088 11.0533L30.8862 11.6009L29.9298 11.7467L30 12.712L29.2889 12.0551ZM24.8444 24.4996L24.1342 25.1564L24.2044 24.1911L23.2471 24.0453L24.0462 23.4978L23.5644 22.6587L24.4889 22.9422L24.8444 22.0418L25.2009 22.9422L26.1262 22.6587L25.6436 23.4978L26.4418 24.0453L25.4853 24.1911L25.5556 25.1564L24.8444 24.4996ZM27.5556 14.2222L27.8169 14.752L28.4009 14.8364L27.9787 15.248L28.0782 15.8302L27.5556 15.5556L27.0329 15.8302L27.1324 15.248L26.7102 14.8364L27.2942 14.752L27.5556 14.2222Z" fill="white"/>
<path d="M16.8889 16V4.44444H3.55556C3.27111 4.44444 3.01867 4.48444 3.01867 4.48444L3.01511 6.04355L0.588447 6.04C0.588447 6.04 0.551114 6.09244 0.475558 6.22222C0.163303 6.76262 -0.000743507 7.37587 2.53327e-06 8V16H16.8889Z" fill="#00247D"/>
<path d="M16.8889 4.44444H14.8169L10.6667 7.35022V4.44444H6.22222V6.728L3.01867 4.48444C2.48431 4.56426 1.97565 4.76657 1.53244 5.07555L5.712 8H4.16889L0.859555 5.68089C0.761962 5.79496 0.671423 5.91489 0.588444 6.04L3.38933 8H0V12.4444H3.45333L0 14.9031V16H2.96178L6.22222 13.7173V16H10.6667V13.0942L14.816 16H16.8889V14.1964L14.3867 12.4444H16.8889V8H14.3876L16.8889 6.248V4.44444Z" fill="#EEEEEE"/>
<path d="M9.77778 4.44444H7.11111V8.88889H0V11.5556H7.11111V16H9.77778V11.5556H16.8889V8.88889H9.77778V4.44444Z" fill="#CF1B2B"/>
<path d="M16.8889 4.44444H15.5902L10.6667 7.89244V8H12.0631L16.8889 4.62044V4.44444ZM1.53244 5.07555C1.28358 5.24823 1.0575 5.45162 0.859546 5.68089L4.16888 8H5.7111L1.53244 5.07555ZM5.72177 12.4444L0.652435 16H2.18755L6.22221 13.1751V12.4444H5.72177ZM16.8889 15.824V14.7396L13.6115 12.4444H12.0622L16.8889 15.824Z" fill="#CF1B2B"/>
</g>
<defs>
<clipPath id="clip0_109_2175">
<rect width="32" height="32" fill="white"/>
</clipPath>
</defs>
</svg>
