<svg width="124" height="124" viewBox="0 0 124 124" fill="none" xmlns="http://www.w3.org/2000/svg">
<path d="M71.7526 51.3298C77.3062 55.8605 80.0833 58.1256 80.0833 62C80.0833 65.8745 77.3062 68.1396 71.7526 72.6702C70.2196 73.9211 68.6991 75.0986 67.3015 76.0797C66.0755 76.9405 64.6872 77.8307 63.2498 78.7049C57.7091 82.0741 54.9387 83.7589 52.4541 81.8938C49.9694 80.0286 49.7436 76.1236 49.292 68.3147C49.1642 66.106 49.0833 63.9412 49.0833 62C49.0833 60.0589 49.1642 57.8941 49.292 55.6853C49.7436 47.8762 49.9694 43.9715 52.4541 42.1063C54.9387 40.2411 57.7091 41.9258 63.2498 45.2951C64.6872 46.1692 66.0755 47.0596 67.3015 47.9205C68.6991 48.9017 70.2196 50.0792 71.7526 51.3298Z" stroke="white" stroke-width="6"/>
<path d="M36.1667 17.2454C43.7662 12.8494 52.5894 10.3334 62 10.3334C90.5345 10.3334 113.667 33.4653 113.667 62C113.667 90.5345 90.5345 113.667 62 113.667C33.4653 113.667 10.3333 90.5345 10.3333 62C10.3333 52.5895 12.8494 43.7662 17.2454 36.1667" stroke="white" stroke-width="6" stroke-linecap="round"/>
</svg>
