<svg width="31" height="21" viewBox="0 0 31 21" fill="none" xmlns="http://www.w3.org/2000/svg">
<path d="M30.6026 0.462891C30.0688 2.57161 29.5349 4.8138 29.0011 7.18945C28.4672 9.5651 27.9734 11.9141 27.5196 14.2363C27.0925 16.5319 26.7455 18.6273 26.4786 20.5225H17.3096L16.7491 19.6416C17.2296 17.693 17.8435 15.611 18.5909 13.3955C19.365 11.18 20.1925 8.96452 21.0733 6.74902C21.9809 4.50684 22.8884 2.41146 23.796 0.462891H30.6026ZM13.9063 0.462891C13.3725 2.57161 12.8386 4.8138 12.3048 7.18945C11.7709 9.5651 11.2771 11.9141 10.8233 14.2363C10.3962 16.5319 10.0359 18.6273 9.74226 20.5225H0.613356L0.0928478 19.6416C0.573317 17.693 1.18725 15.611 1.93464 13.3955C2.68204 11.18 3.49617 8.96452 4.37703 6.74902C5.28458 4.50684 6.19213 2.41146 7.09968 0.462891H13.9063Z" fill="#366FB2"/>
</svg>
